<?xml version="1.0" encoding="UTF-8"?>
<svg id="Layer_2" data-name="Layer 2" xmlns="http://www.w3.org/2000/svg" viewBox="0 0 400 410.59">
  <defs>
    <style>
      .cls-1 {
        fill: #f2f2f2;
      }

      .cls-2 {
        fill: #536aff;
      }
    </style>
  </defs>
  <g id="Layer_1-2" data-name="Layer 1">
    <rect class="cls-1" x="0" y="0" width="400" height="410.59" rx="200" ry="200"/>
    <g>
      <path class="cls-2" d="M308.12,319.45h-96.41c-15.44,0-27.96-12.52-27.96-27.96s12.52-27.96,27.96-27.96h96.41c15.44,0,27.96,12.52,27.96,27.96s-12.52,27.96-27.96,27.96Z"/>
      <path class="cls-2" d="M216.89,179.2l-89.98-89.98c-14.41-14.41-37.77-14.41-52.18,0-14.41,14.41-14.41,37.77,0,52.18l63.89,63.89-63.89,63.89c-14.41,14.41-14.41,37.77,0,52.18,7.21,7.21,16.65,10.81,26.09,10.81s18.89-3.6,26.09-10.81l89.98-89.98c14.41-14.41,14.41-37.77,0-52.18Z"/>
    </g>
  </g>
</svg>