<?xml version="1.0" encoding="UTF-8"?>
<svg id="Layer_2" data-name="Layer 2" xmlns="http://www.w3.org/2000/svg" viewBox="0 0 272.16 253.76">
  <defs>
    <style>
      .cls-1 {
        fill: #536aff;
      }
    </style>
  </defs>
  <g id="Layer_1-2" data-name="Layer 1">
    <g>
      <path class="cls-1" d="M244.21,241.03h-96.41c-15.44,0-27.96-12.52-27.96-27.96s12.52-27.96,27.96-27.96h96.41c15.44,0,27.96,12.52,27.96,27.96s-12.52,27.96-27.96,27.96Z"/>
      <path class="cls-1" d="M152.97,100.79L62.99,10.81C48.58-3.6,25.22-3.6,10.81,10.81c-14.41,14.41-14.41,37.77,0,52.18l63.89,63.89-63.89,63.89c-14.41,14.41-14.41,37.77,0,52.18,7.21,7.21,16.65,10.81,26.09,10.81s18.89-3.6,26.09-10.81l89.98-89.98c14.41-14.41,14.41-37.77,0-52.18Z"/>
    </g>
  </g>
</svg>